<svg class="svg-icon" style="width: 1em; height: 1em;vertical-align: middle;fill: currentColor;overflow: hidden;" viewBox="0 0 1024 1024" version="1.1" xmlns="http://www.w3.org/2000/svg"><path d="M969.6 436.48L547.8656 14.9504a50.944 50.944 0 0 0-71.68 0L54.4512 436.48a51.2 51.2 0 0 0 35.84 87.04h48.896v394.24A106.24 106.24 0 0 0 245.4272 1024h533.1456a106.1888 106.1888 0 0 0 106.0864-106.0864v-394.24h48.9472a51.2 51.2 0 0 0 35.84-87.04z m-166.5024 481.28a24.832 24.832 0 0 1-24.5248 24.4736H245.4272a24.832 24.832 0 0 1-24.4736-24.4736V496.128a41.3696 41.3696 0 0 0-0.768-6.7072 41.8304 41.8304 0 0 0 0.5632-6.7072 40.96 40.96 0 0 0-40.96-40.96h-15.36L512.0256 94.3104l347.5968 347.5968h-15.7184a40.704 40.704 0 0 0-39.2704 51.7632 40.96 40.96 0 0 0-1.536 10.9568z"  /><path d="M595.9936 378.88a166.2464 166.2464 0 0 0-81.2032 21.248 166.2464 166.2464 0 0 0-247.552 145.0496c0 187.136 222.9248 285.44 232.3968 289.536a40.4992 40.4992 0 0 0 16.1792 3.328 40.96 40.96 0 0 0 20.48-5.4784c23.0912-13.4144 225.9968-135.3728 225.9968-287.3856A166.5024 166.5024 0 0 0 595.9936 378.88z m-82.432 371.8144c-46.4896-24.6272-164.7104-97.8944-164.7104-205.5168a84.5824 84.5824 0 0 1 139.4688-64.512 40.96 40.96 0 0 0 52.8896 0 84.5824 84.5824 0 0 1 139.4688 64.4608c0 80.2304-107.7248 166.912-167.1168 205.5168z"  /></svg>